<svg width="181" height="237" viewBox="0 0 181 237" fill="none" xmlns="http://www.w3.org/2000/svg">
<path d="M157.85 81.163H144.3V54.843C144.3 25.143 120.62 0.452996 90.92 0.00299584C83.7583 -0.0722479 76.6525 1.27056 70.0121 3.95405C63.3718 6.63753 57.3281 10.6086 52.2295 15.6385C47.1309 20.6683 43.0781 26.6575 40.3046 33.2608C37.5312 39.8641 36.092 46.9509 36.0699 54.113V81.163H22.55C16.575 81.1815 10.8501 83.5632 6.62512 87.7881C2.40017 92.0131 0.0184617 97.7381 0 103.713V211.933C0.0184617 217.908 2.40017 223.633 6.62512 227.858C10.8501 232.083 16.575 234.465 22.55 234.483H157.85C163.824 234.465 169.548 232.082 173.771 227.857C177.995 223.632 180.374 217.907 180.39 211.933V103.713C180.374 97.739 177.995 92.014 173.771 87.7887C169.548 83.5635 163.824 81.1815 157.85 81.163V81.163ZM98.1 151.513V190.273C98.113 192.325 97.3456 194.306 95.953 195.814C94.5604 197.321 92.6469 198.243 90.6 198.393C89.5314 198.443 88.4637 198.276 87.4615 197.901C86.4594 197.527 85.5437 196.953 84.7697 196.215C83.9956 195.476 83.3794 194.588 82.9584 193.605C82.5373 192.621 82.3201 191.563 82.3199 190.493V151.493C78.6617 149.709 75.716 146.738 73.9637 143.064C72.2113 139.39 71.7557 135.231 72.6712 131.266C73.5867 127.3 75.8193 123.761 79.0046 121.228C82.1899 118.694 86.1398 117.314 90.21 117.314C94.2801 117.314 98.2301 118.694 101.415 121.228C104.601 123.761 106.833 127.3 107.749 131.266C108.664 135.231 108.209 139.39 106.456 143.064C104.704 146.738 101.758 149.709 98.1 151.493V151.513ZM128.54 81.163H51.85V54.113C51.85 43.9472 55.8883 34.1979 63.0766 27.0096C70.2649 19.8213 80.0142 15.783 90.18 15.783C100.346 15.783 110.095 19.8213 117.283 27.0096C124.472 34.1979 128.51 43.9472 128.51 54.113L128.54 81.163Z" fill="#6C63FF"/>
<path opacity="0.1" d="M157.85 83.163H144.3V56.843C144.3 27.143 120.62 2.453 90.92 2.003C83.7583 1.92775 76.6525 3.27056 70.0121 5.95405C63.3718 8.63753 57.3281 12.6086 52.2295 17.6385C47.1309 22.6683 43.0781 28.6575 40.3046 35.2608C37.5312 41.8641 36.092 48.9509 36.0699 56.113V83.163H22.55C16.575 83.1815 10.8501 85.5632 6.62512 89.7881C2.40017 94.0131 0.0184617 99.7381 0 105.713V213.933C0.0184617 219.908 2.40017 225.633 6.62512 229.858C10.8501 234.083 16.575 236.465 22.55 236.483H157.85C163.824 236.465 169.548 234.082 173.771 229.857C177.995 225.632 180.374 219.907 180.39 213.933V105.713C180.374 99.739 177.995 94.014 173.771 89.7887C169.548 85.5635 163.824 83.1815 157.85 83.163ZM98.1 153.513V192.273C98.113 194.325 97.3456 196.306 95.953 197.814C94.5604 199.321 92.6469 200.243 90.6 200.393C89.5314 200.443 88.4637 200.276 87.4615 199.901C86.4594 199.527 85.5437 198.953 84.7697 198.215C83.9956 197.476 83.3794 196.588 82.9584 195.605C82.5373 194.621 82.3201 193.563 82.3199 192.493V153.493C78.6617 151.709 75.716 148.738 73.9637 145.064C72.2113 141.39 71.7557 137.231 72.6712 133.266C73.5867 129.3 75.8193 125.761 79.0046 123.228C82.1899 120.694 86.1398 119.314 90.21 119.314C94.2801 119.314 98.2301 120.694 101.415 123.228C104.601 125.761 106.833 129.3 107.749 133.266C108.664 137.231 108.209 141.39 106.456 145.064C104.704 148.738 101.758 151.709 98.1 153.493V153.513ZM128.54 83.163H51.85V56.113C51.85 45.9472 55.8883 36.1979 63.0766 29.0096C70.2649 21.8213 80.0142 17.783 90.18 17.783C100.346 17.783 110.095 21.8213 117.283 29.0096C124.472 36.1979 128.51 45.9472 128.51 56.113L128.54 83.163Z" fill="black"/>
</svg>
